<?xml version="1.0" encoding="iso-8859-1"?>
<!-- Generator: Adobe Illustrator 19.0.0, SVG Export Plug-In . SVG Version: 6.00 Build 0)  -->
<svg version="1.1" id="Layer_1" xmlns="http://www.w3.org/2000/svg" xmlns:xlink="http://www.w3.org/1999/xlink" x="0px" y="0px"
	 viewBox="0 0 511.997 511.997" style="enable-background:new 0 0 511.997 511.997;" xml:space="preserve">
<g>
	<g>
		<circle cx="217.074" cy="218.544" r="13.349"/>
	</g>
</g>
<g>
	<g>
		<path d="M238.037,161.291h-22.05c-16.738,0-30.355,13.617-30.355,30.355c0,4.574,3.708,8.281,8.281,8.281h44.124
			c4.573,0,8.281-3.707,8.281-8.281v-22.074C246.318,164.997,242.61,161.291,238.037,161.291z M229.756,183.365h-24.792
			c2.519-3.346,6.522-5.512,11.024-5.512h13.769V183.365z"/>
	</g>
</g>
<g>
	<g>
		<circle cx="336.057" cy="218.544" r="13.349"/>
	</g>
</g>
<g>
	<g>
		<path d="M367.499,190.933c-0.382-16.409-13.848-29.642-30.347-29.642h-22.05c-4.573,0-8.281,3.707-8.281,8.281v22.074
			c0,4.574,3.708,8.281,8.281,8.281h44.124c0.008-0.001,0.014-0.001,0.022,0c4.573,0,8.281-3.707,8.281-8.281
			C367.529,191.405,367.519,191.167,367.499,190.933z M323.382,183.365v-5.512h0.001h13.769c4.502,0,8.505,2.166,11.024,5.512
			H323.382z"/>
	</g>
</g>
<g>
	<g>
		<path d="M307.969,260.983c-4.573,0-8.281,3.707-8.281,8.281c0,12.747-10.371,23.119-23.119,23.119
			c-12.747,0-23.119-10.371-23.119-23.119c0-4.574-3.708-8.281-8.281-8.281s-8.281,3.708-8.281,8.281
			c0,21.88,17.801,39.681,39.681,39.681c21.88,0,39.681-17.8,39.681-39.681C316.25,264.69,312.543,260.983,307.969,260.983z"/>
	</g>
</g>
<g>
	<g>
		<path d="M479.011,457.89c-1.209-4.407-5.766-7.003-10.176-5.79c-4.411,1.21-7.005,5.767-5.795,10.178
			c2.967,10.81,4.759,21.929,5.35,33.16h-60.779V379.856c17.274,13.317,31.68,30.173,42.131,49.415
			c2.183,4.018,7.21,5.504,11.229,3.325c4.019-2.184,5.508-7.21,3.325-11.23c-14.274-26.281-35.223-48.537-60.582-64.363
			c-0.908-0.566-1.9-0.932-2.919-1.115c-11.555-7.018-23.792-12.606-36.559-16.712c20.167-16.212,35.407-37.617,44.22-61.628h6.452
			c25.966,0,47.09-21.125,47.09-47.09c0-25.231-19.945-45.884-44.897-47.034v-20.64c0-21.868-5.366-43.827-15.518-63.508
			c-11.76-22.797-29.475-42.119-51.228-55.87c-22.462-14.199-48.167-21.705-74.337-21.705c-20.059,0-39.584,4.349-57.552,12.597
			C194.736,6.256,172.275,0,156.993,0c-0.336,0-0.669,0.003-0.998,0.01c-19.118,0.341-37.416,10.651-50.201,28.286
			c-7.117,9.817-11.997,23.46-16.209,36.74c-1.382,4.359,1.03,9.014,5.389,10.398c4.358,1.38,9.014-1.03,10.398-5.39
			c3.612-11.385,8.078-24.091,13.831-32.027c9.846-13.581,23.017-21.197,37.088-21.449c15.561-0.317,31.664,8.461,46.893,25.385
			c-9.157,5.531-17.661,12.085-25.373,19.565c-11.315,10.974-20.68,23.761-27.834,38.005c-7.004,13.942-11.605,28.682-13.704,43.883
			c-26.197,10.421-51.948,7.613-69.919,2.394c16.052-7.563,23.786-28.999,27.31-38.767c1.552-4.302-0.677-9.047-4.979-10.6
			c-4.304-1.557-9.047,0.678-10.6,4.98c-10.402,28.829-19.319,32.689-29.514,29.611c-5.474-1.654-15.663-4.728-20.269,2.344
			c-1.876,2.881-2.495,7.572,1.395,12.103c6.415,7.473,34.553,21.544,68.988,21.543c11.573-0.001,23.858-1.591,36.267-5.555
			c-0.004,0.441-0.017,0.879-0.017,1.321v20.713c-24.431,1.7-43.793,22.106-43.793,46.962c0,25.966,21.125,47.09,47.09,47.09h5.336
			c8.81,24.017,24.045,45.415,44.227,61.628c-0.958,0.308-1.913,0.628-2.866,0.954c-0.123,0.042-0.245,0.082-0.368,0.124
			c-12.253,4.215-24.004,9.807-35.112,16.737c-0.008,0.004-0.017,0.008-0.024,0.013c-12.882,8.039-24.704,17.799-35.138,29.007
			c-3.116,3.348-2.928,8.587,0.418,11.704s8.587,2.93,11.704-0.418c5.907-6.346,12.304-12.177,19.117-17.435v115.578H84.75
			c1.282-24.19,8.164-47.823,20.094-68.81c2.26-3.976,0.87-9.031-3.106-11.292c-3.977-2.26-9.032-0.871-11.292,3.107
			c-14.705,25.868-22.478,55.357-22.478,85.276c0,4.574,3.708,8.281,8.281,8.281h77.559H399.33h77.559
			c4.573,0,8.281-3.707,8.281-8.281C485.17,488.198,483.098,472.78,479.011,457.89z M416.751,243.253
			c1.103-16.874,1.063-40.114,0.453-43.015c-0.01-0.045-0.032-0.227-0.103-0.232c15.814,1.13,28.334,14.355,28.334,30.45
			c0,16.833-13.695,30.527-30.527,30.527h-1.431C415.046,260.981,416.099,253.23,416.751,243.253z M138.232,260.984v-0.001
			c-16.833,0-30.528-13.695-30.528-30.527c0-15.719,11.941-28.702,27.231-30.351v9.253c0,0.023,0,0.045,0,0.07
			c0,0.026,0,0.053,0,0.079c0,17.318-0.303,34.491,3.625,51.478H138.232z M364.396,356.736l-6.869,10.326
			c0.735-1.106,0.529-4.105,0.548-5.389c0.019-1.297-0.042-2.596-0.183-3.886c-0.033-0.302-0.248-3.325-0.555-3.419
			c2.219,0.685,4.42,1.423,6.604,2.205C364.092,356.628,364.244,356.682,364.396,356.736z M151.495,191.646h0.001V162.78
			c0-67.498,57.024-124.52,124.52-124.52c45.839,0,89.348,26.93,110.846,68.606c8.947,17.343,13.675,36.678,13.675,55.915v28.866
			v0.999c-0.021-0.022-0.042-0.044-0.063-0.066c-6.406-6.493-11.229-14.501-14.124-23.142c-2.89-8.625-2.423-17.047-3.558-25.881
			c-1.976-15.377-10.486-29.504-23.119-38.484c-9.316-6.623-20.587-10.228-32.018-10.228c-6.182,0-12.327,1.053-18.261,3.13
			c-15.481,5.417-26.656,12.344-32.825,16.745c-2.92-2.085-6.977-4.737-12.068-7.526c-5.965-3.267-13.356-6.723-22.079-9.68
			c-5.839-1.98-11.874-2.983-17.938-2.983c-30.715,0-55.703,25.052-55.703,55.847c0,15.53-6.231,31.061-17.224,42.202
			c-0.021,0.022-0.042,0.044-0.063,0.066V191.646z M170.224,294.685c-9.274-14.961-15.313-31.84-17.637-49.274
			c-0.258-1.936-0.47-3.878-0.636-5.826c-0.465-5.464-0.454-10.929-0.454-16.407c0-1.029-0.784-8.64,0-9.162
			c0.034-0.023,0.067-0.047,0.102-0.07c0.177-0.118,0.349-0.243,0.523-0.362c20.227-13.849,33.052-37.836,33.222-62.36
			c0.001-0.155,0.001-0.309,0.002-0.465v-0.382c0-21.661,17.558-39.283,39.141-39.283c4.251,0,8.498,0.709,12.622,2.106
			c11.834,4.012,24.534,9.724,33.934,18.159c3.13,2.809,7.889,2.807,11.038,0.018c0.117-0.104,11.995-10.493,32.788-17.768
			c4.173-1.46,8.477-2.201,12.792-2.201c21.522,0,39.033,17.653,39.033,39.353c0,24.892,13.097,49.313,33.747,63.186
			c0.034,0.023,0.067,0.047,0.102,0.071c0,20.232-0.809,39.853-8.04,58.978c-6.188,16.367-15.829,31.388-28.138,43.824
			c-6.607,6.676-13.969,12.599-21.906,17.619c-0.314,0.199-7.348-3.01-8.357-3.239c-5.104-1.156-10.435-0.969-15.448,0.525
			c-2.192,0.654-4.326,1.538-6.348,2.671l-12.368,6.933c-3.393-4.202-8.17-7.147-13.579-8.261c-0.051-0.011-0.102-0.021-0.152-0.031
			c-5.891-1.19-13.364-1.184-19.266,0c-0.051,0.01-0.103,0.02-0.154,0.031c-5.409,1.115-10.185,4.06-13.578,8.26l-12.366-6.932
			c-9.364-5.266-21.355-5.219-30.723,0.371c-0.503,0.3-5.188-3.423-5.812-3.865c-1.969-1.39-3.897-2.837-5.78-4.339
			c-3.742-2.983-7.312-6.182-10.686-9.576C181.145,310.253,175.224,302.755,170.224,294.685z M341.359,361.214
			c-0.015,3.649-1.327,7.302-3.882,9.92c-9.752,9.996-23.067-0.91-32.261-6.065v-7.716c9.474-5.311,23.836-16.776,33.216-4.968
			C340.408,354.874,341.373,358.043,341.359,361.214z M288.653,356.266c0,0,0,9.884,0,9.892c0,3.82-3.327,7.138-7.137,7.138h-9.892
			c-3.753,0-7.125-3.298-7.136-7.121c0-0.043,0-0.087-0.001-0.13c0,0,0-5.613,0-5.625v-4.041c0-0.038,0.001-0.074,0.001-0.13
			c0-3.766,3.314-7.12,7.136-7.12h9.892C285.336,349.128,288.653,352.448,288.653,356.266z M247.924,357.353c0,0,0,3.066,0,3.077
			v4.64c-9.019,5.056-21.895,15.748-31.742,6.572c-5.236-4.879-5.839-13.919-1.297-19.451
			C224.34,340.678,238.507,352.075,247.924,357.353z M195.101,362.747c0.025,0.511,0.063,1.022,0.113,1.533
			c0.075,0.772,0.033,2.059,0.389,2.77l-7.072-10.632c0.084,0.121,7.313-2.207,7.362-2.417c-0.53,2.237-0.804,4.535-0.829,6.834
			C195.058,361.472,195.07,362.11,195.101,362.747z M162.09,495.438V368.699c3.555-2.079,7.187-3.997,10.875-5.779l88.15,132.518
			H162.09z M208.731,386.783c1.18,1.774,5.572,3.031,7.5,3.665c2.749,0.903,5.64,1.428,8.534,1.513
			c10.754,0.316,19.455-5.827,28.441-10.863c3.393,4.201,8.17,7.146,13.579,8.26c0.05,0.011,0.1,0.021,0.15,0.031
			c0.72,0.143,1.45,0.257,2.19,0.335c0.078,0.009,0.157,0.013,0.234,0.02c0.746,0.071,1.5,0.115,2.265,0.115h9.892
			c0.764,0,1.517-0.044,2.265-0.115c0.078-0.007,0.157-0.011,0.234-0.02c0.741-0.077,1.47-0.192,2.19-0.336
			c0.05-0.01,0.099-0.02,0.149-0.03c5.41-1.114,10.187-4.06,13.581-8.261c5.019,2.813,10.01,6.149,15.318,8.378
			c8.777,3.686,19.256,3.157,27.498-1.662c0.519-0.302,1.029-0.617,1.529-0.947c0.041-0.028,0.085-0.051,0.126-0.078
			l-67.836,101.978C276.57,488.767,208.745,386.805,208.731,386.783z M391.049,495.438h-99.026l87.884-132.117
			c3.782,1.855,7.5,3.857,11.142,6.026V495.438z"/>
	</g>
</g>
<g>
</g>
<g>
</g>
<g>
</g>
<g>
</g>
<g>
</g>
<g>
</g>
<g>
</g>
<g>
</g>
<g>
</g>
<g>
</g>
<g>
</g>
<g>
</g>
<g>
</g>
<g>
</g>
<g>
</g>
</svg>
