<?xml version="1.0" encoding="iso-8859-1"?>
<!-- Generator: Adobe Illustrator 19.0.0, SVG Export Plug-In . SVG Version: 6.00 Build 0)  -->
<svg version="1.1" id="Layer_1" xmlns="http://www.w3.org/2000/svg" xmlns:xlink="http://www.w3.org/1999/xlink" x="0px" y="0px"
	 viewBox="0 0 512.001 512.001" style="enable-background:new 0 0 512.001 512.001;" xml:space="preserve">
<g>
	<g>
		<path d="M337.459,294.227c-1.167-2.34-3.356-4.003-5.924-4.5c-12.487-2.412-19.063-11.671-26.024-21.475
			c-6.852-9.648-14.618-20.586-28.459-20.586c-6.448,0-13.235,2.371-21.051,7.398c-7.815-5.027-14.602-7.398-21.051-7.398
			c-13.844,0-21.61,10.938-28.461,20.587c-6.96,9.803-13.534,19.062-26.023,21.474c-2.568,0.496-4.759,2.16-5.926,4.5
			c-1.167,2.341-1.177,5.092-0.029,7.441c0.608,1.245,15.292,30.487,48.998,30.489h0.004c10.279,0,21.19-2.815,32.487-8.372
			c11.296,5.558,22.209,8.372,32.489,8.372c33.712,0,48.392-29.245,49-30.49C338.637,299.317,338.626,296.567,337.459,294.227z
			 M288.49,315.351c-8.654,0-18.233-2.829-28.468-8.408c-1.254-0.683-2.637-1.025-4.021-1.025c-1.384,0-2.768,0.342-4.021,1.025
			c-10.236,5.578-19.813,8.408-28.465,8.408h-0.003c-13.635-0.001-22.854-7.079-28.198-13.035
			c11.743-5.836,18.877-15.884,24.879-24.335c5.948-8.378,9.843-13.512,14.759-13.512c2.672,0,7.625,1.313,16.039,7.564
			c2.974,2.21,7.047,2.21,10.021,0c8.416-6.251,13.367-7.564,16.039-7.564c4.915,0,8.809,5.134,14.758,13.511
			c6.001,8.452,13.137,18.501,24.88,24.335C311.34,308.279,302.122,315.351,288.49,315.351z"/>
	</g>
</g>
<g>
	<g>
		<circle cx="203.796" cy="214.752" r="13.545"/>
	</g>
</g>
<g>
	<g>
		<path d="M225.065,156.67h-22.373c-16.983,0-30.8,13.817-30.8,30.799c0,4.64,3.762,8.402,8.402,8.402h44.77
			c4.64,0,8.402-3.761,8.402-8.402v-22.397C233.467,160.43,229.705,156.67,225.065,156.67z M216.663,179.067h-25.156
			c2.557-3.395,6.619-5.593,11.186-5.593h13.97V179.067z"/>
	</g>
</g>
<g>
	<g>
		<circle cx="308.197" cy="214.752" r="13.545"/>
	</g>
</g>
<g>
	<g>
		<path d="M340.1,186.745c-0.388-16.65-14.052-30.076-30.792-30.076h-22.373c-4.64,0-8.402,3.761-8.402,8.402v22.397
			c0,4.641,3.762,8.402,8.402,8.402h44.77c0,0,0.016,0,0.022,0c4.64,0,8.402-3.761,8.402-8.402
			C340.131,187.225,340.121,186.983,340.1,186.745z M295.337,179.067v-5.593h13.97c4.568,0,8.63,2.198,11.185,5.593H295.337z"/>
	</g>
</g>
<g>
	<g>
		<path d="M497.294,465.474c-0.89-4.556-5.306-7.529-9.858-6.637c-0.574,0.112-1.121,0.28-1.64,0.497
			c-3.616,1.498-5.801,5.38-5.021,9.37c1.71,8.745,2.778,17.622,3.194,26.49h-83.862V350.844
			c30.803,19.617,55.547,48.663,69.795,82.305c1.62,3.825,5.742,5.818,9.653,4.897c0.467-0.109,0.932-0.249,1.388-0.443
			c4.273-1.808,6.27-6.74,4.461-11.013c-17.635-41.655-49.82-76.627-89.768-97.805c-0.091-0.048-0.187-0.081-0.279-0.125
			c-3.246-1.716-6.538-3.352-9.883-4.887c8.184-14.767,13.19-31.387,14.356-48.888c25.134-0.155,45.536-20.643,45.536-45.813
			c0-25.078-20.252-45.504-45.258-45.807v-39.158C400.108,64.646,335.461,0,256,0S111.894,64.646,111.894,144.108v39.158
			c-25.006,0.304-45.259,20.729-45.259,45.807c0,25.177,20.412,45.669,45.555,45.814c1.174,17.165,6.115,33.887,14.408,48.847
			c-21.192,9.669-40.351,22.924-57.062,39.492c-3.296,3.267-3.318,8.587-0.039,11.894c3.268,3.296,8.587,3.32,11.883,0.052
			c9.311-9.229,19.535-17.389,30.513-24.364v144.39H28.027c0.269-5.875,0.831-11.708,1.66-17.486
			c0.035-0.236,0.058-0.475,0.093-0.713c0.515-3.493,1.151-6.96,1.868-10.408c0.105-0.506,0.194-1.017,0.304-1.524
			c0.048-0.221,0.105-0.438,0.155-0.659c4.741-21.459,13.372-41.919,25.637-60.456c2.401-3.63,1.617-8.438-1.679-11.135
			c-0.221-0.18-0.451-0.351-0.693-0.512c-3.871-2.563-9.083-1.499-11.644,2.372c-14.465,21.866-24.311,46.172-29.175,71.654
			c-0.081,0.423-0.168,0.846-0.245,1.27c-0.008,0.044-0.015,0.087-0.022,0.131c-2.155,11.752-3.252,23.747-3.252,35.867
			c0,4.641,3.762,8.402,8.402,8.402h100.862h271.409h100.862c4.64,0,8.402-3.761,8.402-8.402
			C500.97,490.78,499.733,477.953,497.294,465.474z M400.108,217.985v-17.924c15.741,0.3,28.454,13.198,28.454,29.011
			c0,15.811-12.713,28.71-28.454,29.01V217.985z M111.894,217.985v40.097c-15.741-0.3-28.455-13.198-28.455-29.01
			s12.713-28.711,28.455-29.011V217.985z M128.698,495.195L128.698,495.195V341.338c0.639-0.315,1.283-0.618,1.925-0.927
			l109.17,154.784H128.698z M171.149,368.714c1.492,0.846,3.011,1.647,4.544,2.429c0.026,0.013,0.052,0.027,0.077,0.04
			c-0.372,0.876-0.699,1.771-0.989,2.68L171.149,368.714z M190.165,383.414c0.035-3.712,1.451-7.425,4.054-10.082
			c4.438-4.527,11.795-5.562,17.309-2.471l15.406,8.638v7.83l-15.406,8.636c-7.242,4.057-16.87,0.847-20.213-6.781
			C190.52,387.369,190.146,385.392,190.165,383.414z M203.529,414.623c0.737,1.045,7.531-0.663,8.643-0.956
			c1.282-0.337,20.264-9.901,20.122-10.077c3.443,4.263,8.29,7.251,13.779,8.382c0.05,0.01,0.101,0.02,0.152,0.03
			c6.061,1.173,13.486,1.22,19.554,0c0.049-0.01,0.097-0.02,0.147-0.029c5.491-1.13,10.338-4.118,13.782-8.382
			c9.108,5.105,17.775,11.4,28.714,11.035c0.017,0,0.034,0,0.049,0l-52.47,74.393C256.001,489.019,203.533,414.628,203.529,414.623z
			 M243.74,388.431v-10.037c0-0.528,0.067-1.071,0.206-1.663c0.751-3.196,3.753-5.578,7.037-5.578h10.037
			c0.396,0,0.783,0.039,1.165,0.102c0.038,0.007,0.076,0.011,0.114,0.018c2.809,0.516,5.138,2.692,5.768,5.555
			c0.002,0.013,0.006,0.026,0.018,0.068c0.104,0.482,0.175,0.989,0.176,1.483c0,0.044,0,0.086,0.001,0.131v9.841
			c0,0.03,0,0.06,0,0.091c0,0.243-0.018,0.491-0.047,0.744c-0.006,0.019-0.009,0.045-0.011,0.064
			c-0.003,0.021-0.006,0.04-0.008,0.062c-0.034,0.253-0.078,0.51-0.142,0.782c-0.75,3.196-3.752,5.58-7.036,5.58h-10.037
			C247.125,395.674,243.74,392.32,243.74,388.431z M285.065,387.329v-7.83l15.406-8.638c5.838-3.271,13.67-1.879,18.01,3.244
			c3.793,4.477,4.424,11.366,1.508,16.457c-3.834,6.693-12.816,9.162-19.518,5.402L285.065,387.329z M272.208,495.195
			l109.162-154.774c0.645,0.31,1.292,0.62,1.933,0.937v153.837H272.208z M336.235,371.194c0.388-0.198,0.77-0.408,1.155-0.609
			c1.081-0.564,2.151-1.143,3.21-1.736c0.083-0.047,0.169-0.089,0.252-0.136l-3.629,5.144c-0.02-0.064-0.049-0.125-0.071-0.189
			c-0.271-0.831-0.571-1.652-0.912-2.457C336.24,371.205,336.239,371.2,336.235,371.194z M336.567,351.654
			c-3.613,2.297-7.372,4.347-11.255,6.151c-0.449,0.208-7.863-4.002-9.06-4.352c-8.014-2.348-16.718-1.329-23.997,2.751
			l-12.578,7.051c-2.75-3.382-6.405-5.985-10.585-7.481c-0.059-0.021-0.118-0.044-0.177-0.065c-0.427-0.149-0.856-0.29-1.293-0.416
			c-6.668-1.91-14.618-1.793-21.398-0.466c-0.05,0.01-0.101,0.02-0.151,0.03c-5.49,1.13-10.336,4.118-13.78,8.382l-12.549-7.034
			c-10.319-5.785-23.356-5.17-33.046,1.592c-34.944-16.354-58.002-52.191-58.002-90.831v-0.475v-40.915
			c0.066-0.013,0.131-0.03,0.198-0.044c0.259-0.052,0.514-0.113,0.772-0.169c0.411-0.091,0.821-0.183,1.228-0.285
			c0.274-0.068,0.547-0.143,0.819-0.217c8.85-2.4,16.896-7.691,22.63-14.844c6.148-7.671,9.602-17.442,9.602-27.284v-57.554
			c0-18.735,15.242-33.977,33.977-33.977h116.15c18.735,0,33.977,15.242,33.977,33.977c0,0,0,57.554,0,57.563
			c0,10.135,3.678,20.203,10.177,27.976c6.306,7.542,15.231,12.881,24.875,14.813c0.066,0.013,0.131,0.03,0.197,0.044
			c0,0,0,40.915,0,40.925v0.466h0.002C383.303,300.806,365.216,333.446,336.567,351.654z M383.303,191.653v16.575
			c-10.739-3.48-18.446-14.237-18.446-25.495V125.18c0-28.001-22.78-50.781-50.781-50.781h-116.15
			c-28.001,0-50.781,22.78-50.781,50.781c0,0,0,57.554,0,57.557c0,11.219-7.608,21.8-18.213,25.413
			c-0.077,0.027-0.155,0.054-0.233,0.08v-16.575v-47.546c0-70.196,57.108-127.304,127.303-127.304
			c70.195,0,127.302,57.108,127.302,127.303C383.303,144.108,383.303,191.643,383.303,191.653z"/>
	</g>
</g>
<g>
</g>
<g>
</g>
<g>
</g>
<g>
</g>
<g>
</g>
<g>
</g>
<g>
</g>
<g>
</g>
<g>
</g>
<g>
</g>
<g>
</g>
<g>
</g>
<g>
</g>
<g>
</g>
<g>
</g>
</svg>
