<?xml version="1.0" encoding="iso-8859-1"?>
<!-- Generator: Adobe Illustrator 19.0.0, SVG Export Plug-In . SVG Version: 6.00 Build 0)  -->
<svg version="1.1" id="Layer_1" xmlns="http://www.w3.org/2000/svg" xmlns:xlink="http://www.w3.org/1999/xlink" x="0px" y="0px"
	 viewBox="0 0 511.999 511.999" style="enable-background:new 0 0 511.999 511.999;" xml:space="preserve">
<g>
	<g>
		<path d="M357.9,394.618c-0.104-4.326-3.656-7.712-8.023-7.643c-4.326,0.106-7.749,3.697-7.643,8.023
			c0.658,27.197,0.611,60.407-0.145,101.329H170.369c-2.273-122.872,1.852-174.556,11.948-205.682l19.592,12.4
			c-1.596,1.118-2.728,2.784-3.157,4.694c-0.456,2.027-0.087,4.153,1.024,5.908l22.35,35.31c1.492,2.357,4.032,3.646,6.629,3.646
			c1.432,0,2.882-0.393,4.183-1.216l22.677-14.353l22.678,14.353c1.301,0.823,2.75,1.216,4.183,1.216
			c2.596,0,5.137-1.289,6.629-3.646l22.35-35.31c1.111-1.756,1.479-3.881,1.024-5.908c-0.429-1.91-1.562-3.577-3.158-4.694
			l20.67-13.083c5.143,15.55,8.708,36.214,10.745,68.796c0.26,4.154,3.709,7.346,7.812,7.346c0.165,0,0.33-0.005,0.497-0.016
			c4.319-0.271,7.601-3.99,7.331-8.309c-1.047-16.717-2.595-33.473-5.732-49.941c-2.124-11.146-5.039-22.18-9.418-32.666
			c-3.484-8.344-7.927-16.21-12.868-23.771c-4.975-7.614-10.326-14.974-15.398-22.522c-26.148-38.869-19.711-110.548-17.203-131.087
			c10.688-3.042,18.537-12.894,18.537-24.545V31.15C314.291,13.974,300.317,0,283.139,0h-53.824c-17.176,0-31.15,13.974-31.15,31.15
			v42.101c0,11.653,7.853,21.507,18.544,24.547c0.919,7.465,2.365,21.677,2.559,38.54c0.049,4.297,3.548,7.746,7.833,7.746
			c0.03,0,0.062,0,0.092,0c4.327-0.05,7.795-3.598,7.745-7.925c-0.3-26.097-3.389-45.647-3.521-46.467
			c-0.609-3.801-3.887-6.595-7.736-6.595c-5.428,0-9.844-4.417-9.844-9.844V31.15c0-8.535,6.944-15.48,15.48-15.48h53.824
			c8.535,0,15.48,6.944,15.48,15.48v42.101c0,5.427-4.416,9.844-9.844,9.844c-3.849,0-7.127,2.795-7.736,6.595
			c-0.633,3.95-15.126,97.337,18.915,147.94c0.535,0.795,1.061,1.57,1.585,2.34l-14.84,9.392
			c-5.635-11.488-17.449-19.417-31.083-19.417s-25.449,7.93-31.085,19.418l-13.983-8.85c0.644-0.943,1.293-1.901,1.954-2.883
			c10.609-15.769,17.551-37.273,20.636-63.917c0.498-4.298-2.584-8.186-6.883-8.685c-4.295-0.496-8.186,2.585-8.685,6.884
			c-1.838,15.877-5.185,31.998-12.134,46.491c-6.544,13.646-17.139,24.645-24.314,38.032c-15.754,29.395-22.568,62.894-25.073,95.9
			c-3.814,50.253-2.215,101.815-1.198,151.986c0.087,4.265,3.569,7.678,7.834,7.678h187.088c4.266,0,7.748-3.413,7.834-7.678
			C358.509,459.615,358.604,423.731,357.9,394.618z M231.176,333.958l-13.081-20.667l22.868,14.474L231.176,333.958z
			 M287.433,278.133c0.005-0.01,0.009-0.021,0.013-0.029c1.638-3.859,2.573-8.007,2.736-12.196c0.003-0.072,0.014-0.142,0.016-0.215
			l20.253-12.818c0.018,0.026,0.037,0.053,0.055,0.079c4.924,7.152,9.672,14.443,13.492,22.255l-29.314,18.554l-12.021-7.609
			C283.193,286.491,287.042,279.018,287.433,278.133z M236.775,262.89c0.905-9.389,8.948-17.274,18.839-17.274
			c16.012,0,24.842,19.631,14.058,31.598c-10.214,11.333-29.551,6.023-32.604-8.855C236.689,266.511,236.604,264.673,236.775,262.89
			z M200.791,254.653c0.114-0.167,0.228-0.334,0.343-0.503c0.167-0.243,0.334-0.488,0.501-0.732l19.396,12.274
			c0.003,0.107,0.014,0.21,0.018,0.315c0.451,11.024,6.566,21.634,15.828,27.613c0.093,0.061,0.187,0.12,0.281,0.18
			c9.428,5.961,21.8,6.958,32.051,2.563c0.056-0.024,0.115-0.045,0.171-0.069l16.253,10.286l8.388,5.309l-13.968,22.069
			l-91.843-58.128C191.874,268.178,196.072,261.577,200.791,254.653z"/>
	</g>
</g>
<g>
	<g>
		<path d="M317.535,372.761H193.694c-4.327,0-7.835,3.507-7.835,7.835v82.631c0,4.328,3.508,7.835,7.835,7.835h123.841
			c4.327,0,7.835-3.507,7.835-7.835v-82.631C325.37,376.268,321.862,372.761,317.535,372.761z M309.699,455.391h-108.17v-66.96
			h108.17V455.391z"/>
	</g>
</g>
<g>
	<g>
		<path d="M289.014,402.584h-66.799c-4.327,0-7.835,3.507-7.835,7.835c0,4.328,3.508,7.835,7.835,7.835h66.799
			c4.327,0,7.835-3.507,7.835-7.835C296.849,406.092,293.341,402.584,289.014,402.584z"/>
	</g>
</g>
<g>
	<g>
		<path d="M289.014,425.568h-66.799c-4.327,0-7.835,3.507-7.835,7.835c0,4.328,3.508,7.835,7.835,7.835h66.799
			c4.327,0,7.835-3.507,7.835-7.835C296.849,429.075,293.341,425.568,289.014,425.568z"/>
	</g>
</g>
<g>
</g>
<g>
</g>
<g>
</g>
<g>
</g>
<g>
</g>
<g>
</g>
<g>
</g>
<g>
</g>
<g>
</g>
<g>
</g>
<g>
</g>
<g>
</g>
<g>
</g>
<g>
</g>
<g>
</g>
</svg>
